<svg width="24" height="24" viewBox="0 0 24 24" fill="none" xmlns="http://www.w3.org/2000/svg">
<path d="M3 6V13.5" stroke="url(#paint0_linear_179485_4106)" stroke-width="1.5" stroke-linecap="round" stroke-linejoin="round"/>
<path d="M5.08118 20.25C5.83161 19.099 6.85734 18.1534 8.06546 17.4989C9.27357 16.8444 10.6259 16.5016 11.9999 16.5016C13.374 16.5016 14.7263 16.8444 15.9344 17.4989C17.1425 18.1534 18.1682 19.099 18.9187 20.25" stroke="url(#paint1_linear_179485_4106)" stroke-width="1.5" stroke-linecap="round" stroke-linejoin="round"/>
<path d="M21 6L12 9L3 6L12 3L21 6Z" stroke="url(#paint2_linear_179485_4106)" stroke-width="1.5" stroke-linecap="round" stroke-linejoin="round"/>
<path d="M15.8719 7.70627C16.5599 8.45756 17.0144 9.39278 17.1801 10.3979C17.3458 11.4031 17.2155 12.4347 16.805 13.3671C16.3946 14.2994 15.7218 15.0922 14.8686 15.6488C14.0154 16.2055 13.0187 16.5018 12 16.5018C10.9813 16.5018 9.9846 16.2055 9.13141 15.6488C8.27822 15.0922 7.6054 14.2994 7.19497 13.3671C6.78453 12.4347 6.65422 11.4031 6.81991 10.3979C6.98561 9.39278 7.44015 8.45756 8.12813 7.70627" stroke="url(#paint3_linear_179485_4106)" stroke-width="1.5" stroke-linecap="round" stroke-linejoin="round"/>
<defs>
<linearGradient id="paint0_linear_179485_4106" x1="3" y1="9.75" x2="4" y2="9.75" gradientUnits="userSpaceOnUse">
<stop stop-color="#4776E6"/>
<stop offset="1" stop-color="#8E54E9"/>
</linearGradient>
<linearGradient id="paint1_linear_179485_4106" x1="5.08118" y1="18.3758" x2="18.9187" y2="18.3758" gradientUnits="userSpaceOnUse">
<stop stop-color="#4776E6"/>
<stop offset="1" stop-color="#8E54E9"/>
</linearGradient>
<linearGradient id="paint2_linear_179485_4106" x1="3" y1="6" x2="21" y2="6" gradientUnits="userSpaceOnUse">
<stop stop-color="#4776E6"/>
<stop offset="1" stop-color="#8E54E9"/>
</linearGradient>
<linearGradient id="paint3_linear_179485_4106" x1="6.75" y1="12.1041" x2="17.25" y2="12.1041" gradientUnits="userSpaceOnUse">
<stop stop-color="#4776E6"/>
<stop offset="1" stop-color="#8E54E9"/>
</linearGradient>
</defs>
</svg>
